<svg xmlns="http://www.w3.org/2000/svg" width="219.043" height="38.162" viewBox="0 0 219.043 38.162">
  <g id="Laserfiche_LogotypeOnly_RGB" transform="translate(-72.6 -72.6)">
    <path id="Path_57382" data-name="Path 57382" d="M759.43,89.048h-.714v1.3h.714a.644.644,0,0,0,.682-.652.663.663,0,0,0-.682-.652m.682,3.382-.776-1.551h-.62V92.43h-.652V88.52h1.458a1.208,1.208,0,0,1,1.272,1.21,1.106,1.106,0,0,1-.807,1.055l.869,1.644Zm-.776-5.026a3.1,3.1,0,1,0,3.041,3.1,3.04,3.04,0,0,0-3.041-3.1m0,6.671a3.537,3.537,0,1,1,3.537-3.537,3.535,3.535,0,0,1-3.537,3.537" transform="translate(-471.232 -9.932)" fill="#e35205"/>
    <path id="Path_57383" data-name="Path 57383" d="M90.967,106.891H72.6V75.4h7.477v24.976h10.89Z" transform="translate(0 -1.931)" fill="#e35205"/>
    <path id="Path_57384" data-name="Path 57384" d="M158.207,115.3c-.093,0-.962-.062-1.334-.062-3.878,0-4.964,1.365-4.964,2.854,0,1.52,1.272,2.73,3.475,2.73a9.168,9.168,0,0,0,2.823-.434V115.3Zm-3.289,10.425c-6.64,0-9.618-3.32-9.618-7.756,0-4.468,4.1-7.043,10.207-7.043.807,0,2.575.031,2.73.031v-.683c0-2.3-2.048-3.444-4.5-3.444a14.954,14.954,0,0,0-5.585,1.427L145.7,104.1a18.024,18.024,0,0,1,9.06-2.2c7.415,0,10.611,4.1,10.58,9.649v11.914a24.64,24.64,0,0,1-10.425,2.265" transform="translate(-50.144 -20.209)" fill="#e35205"/>
    <path id="Path_57385" data-name="Path 57385" d="M388.464,106.754A6.875,6.875,0,0,1,395.2,102.1h.465v6.267h-1.086c-4.064,0-5.678,2.234-5.678,5.243v11.666h-7.2V102.752h6.236l.434,4Z" transform="translate(-213.199 -20.347)" fill="#e35205"/>
    <path id="Path_57386" data-name="Path 57386" d="M498.5,72.7h7.291v5.461H498.5Zm.031,9.773h7.2V105h-7.2Z" transform="translate(-293.761 -0.069)" fill="#e35205"/>
    <path id="Path_57387" data-name="Path 57387" d="M546.811,126.073c-6.888,0-10.611-4.561-10.611-11.852,0-7.508,3.878-11.821,10.611-11.821a11.748,11.748,0,0,1,6.919,2.079l-2.389,4.375A6.51,6.51,0,0,0,547.8,107.8c-2.917,0-4.313,2.358-4.313,6.453,0,4.654,1.769,6.453,4.313,6.453a7.16,7.16,0,0,0,4.033-1.4l2.513,4.251a12.356,12.356,0,0,1-7.539,2.513" transform="translate(-319.764 -20.554)" fill="#e35205"/>
    <path id="Path_57388" data-name="Path 57388" d="M232.552,126.142c-6.267,0-9.432-2.141-10.052-2.513l2.668-4.561a14.778,14.778,0,0,0,7.1,1.831c1.955,0,3.134-.558,3.134-1.613,0-1.21-1.924-1.768-3.134-2.2-.558-.217-1.862-.683-2.823-1.024-1.862-.683-5.585-2.42-5.585-6.981,0-3.351,2.7-6.577,9.122-6.577a21.21,21.21,0,0,1,9.122,1.893l-2.451,4.5a15.822,15.822,0,0,0-5.864-1.3c-1.551,0-2.451.527-2.451,1.4,0,1.21,1.862,1.737,2.854,2.11q.931.326,2.327.838c3.568,1.3,6.112,3.444,6.112,7.074,0,4.592-3.878,7.136-10.083,7.136" transform="translate(-103.392 -20.623)" fill="#e35205"/>
    <path id="Path_57389" data-name="Path 57389" d="M620.176,105.029V90.416a2.35,2.35,0,0,0-2.42-2.606A5.937,5.937,0,0,0,614.5,89.3v15.73h-7.2V72.7h7.2V84.149a11.357,11.357,0,0,1,6.205-2.234c4.592,0,6.671,3.165,6.671,6.826v16.289Z" transform="translate(-368.805 -0.069)" fill="#e35205"/>
    <path id="Path_57390" data-name="Path 57390" d="M453.975,78.092H447.4V82.4h6.577v5.336H447.4v17.188l-7.2,5.833V82c0-5.771,2.42-9.4,8.811-9.4h4.964v5.492Z" transform="translate(-253.549)" fill="#e35205"/>
    <path id="Path_57391" data-name="Path 57391" d="M309.635,106.985c-2.42,0-3.506,2.358-3.475,5.181h6.95c.031-2.668-.993-5.181-3.475-5.181m-3.506,9.4a4.637,4.637,0,0,0,5.057,4.623,10.182,10.182,0,0,0,4.964-1.551l2.42,4.1a15.114,15.114,0,0,1-8.408,2.42c-7.6-.031-11.262-4.9-11.262-11.852s3.723-11.821,10.456-11.821c7.043,0,10.518,4.9,10.518,12.348v1.675H306.129Z" transform="translate(-156.089 -20.485)" fill="#e35205"/>
    <path id="Path_57392" data-name="Path 57392" d="M697.2,106.985c-2.42,0-3.506,2.358-3.475,5.181h6.981c.031-2.668-1.024-5.181-3.506-5.181m-3.475,9.4a4.638,4.638,0,0,0,5.057,4.623,10.182,10.182,0,0,0,4.964-1.551l2.42,4.1a15,15,0,0,1-8.408,2.42c-7.632-.031-11.262-4.9-11.262-11.852s3.754-11.821,10.456-11.821c7.043,0,10.518,4.9,10.518,12.348v1.675H693.729v.062Z" transform="translate(-423.432 -20.485)" fill="#e35205"/>
  </g>
</svg>